G04 PROTEUS GERBER X2 FILE*
%TF.GenerationSoftware,Labcenter,Proteus,8.12-SP0-Build30713*%
%TF.CreationDate,2021-09-16T14:44:57+00:00*%
%TF.FileFunction,Plated,1,2,PTH*%
%TF.FilePolarity,Positive*%
%TF.Part,Single*%
%TF.SameCoordinates,{034bc27d-0c73-46ba-bb4b-be9bc49d2133}*%
%FSLAX45Y45*%
%MOMM*%
G01*
%TA.AperFunction,ViaDrill*%
%ADD52C,0.381000*%
%TA.AperFunction,ComponentDrill*%
%ADD53C,0.762000*%
%TA.AperFunction,ComponentDrill*%
%ADD54C,1.016000*%
%TA.AperFunction,ComponentDrill*%
%ADD55C,1.524000*%
%ADD56C,0.812800*%
%TD.AperFunction*%
D52*
X-254000Y-63500D03*
D53*
X-2413000Y-889000D03*
X-2159000Y-889000D03*
X-1905000Y-889000D03*
X-1651000Y-889000D03*
X-1397000Y-889000D03*
X-1143000Y-889000D03*
X-889000Y-889000D03*
X-635000Y-889000D03*
X-381000Y-889000D03*
X-127000Y-889000D03*
X+127000Y-889000D03*
X+381000Y-889000D03*
X+635000Y-889000D03*
X+889000Y-889000D03*
X+1143000Y-889000D03*
X+1397000Y-889000D03*
X+1651000Y-889000D03*
X+1905000Y-889000D03*
X+2159000Y-889000D03*
X+2413000Y-889000D03*
X+2413000Y+635000D03*
X+2159000Y+635000D03*
X+1905000Y+635000D03*
X+1651000Y+635000D03*
X+1397000Y+635000D03*
X+1143000Y+635000D03*
X+889000Y+635000D03*
X+635000Y+635000D03*
X+381000Y+635000D03*
X+127000Y+635000D03*
X-127000Y+635000D03*
X-381000Y+635000D03*
X-635000Y+635000D03*
X-889000Y+635000D03*
X-1143000Y+635000D03*
X-1397000Y+635000D03*
X-1651000Y+635000D03*
X-1905000Y+635000D03*
X-2159000Y+635000D03*
X-2413000Y+635000D03*
D54*
X+0Y-2250000D03*
X-3048000Y-2250000D03*
D55*
X-1694000Y+2594000D03*
X-1694000Y+3356000D03*
X-170000Y+3356000D03*
X-424000Y+2594000D03*
X+1250000Y+2500000D03*
X+1250000Y+3262000D03*
X+2774000Y+3262000D03*
X+2520000Y+2500000D03*
D54*
X+3250000Y-548000D03*
X+3250000Y+2500000D03*
X+730000Y+1246000D03*
X+984000Y+1246000D03*
X+1238000Y+1246000D03*
X+1492000Y+1246000D03*
X+1746000Y+1246000D03*
X+2000000Y+1246000D03*
X+2254000Y+1246000D03*
X+2254000Y+1500000D03*
X+2000000Y+1500000D03*
X+1746000Y+1500000D03*
X+1492000Y+1500000D03*
X+1238000Y+1500000D03*
X+984000Y+1500000D03*
X+730000Y+1500000D03*
X-3000000Y+2750000D03*
X-3000000Y-298000D03*
D53*
X+1500000Y-1500000D03*
X+1500000Y-2008000D03*
X-246000Y-1250000D03*
X-500000Y-1250000D03*
X-754000Y-1250000D03*
D56*
X+3500000Y-1150000D03*
X+3500000Y-1350000D03*
X+3500000Y-1550000D03*
X+3500000Y-1750000D03*
D53*
X-2500000Y+3250000D03*
X-2373000Y+3123000D03*
X-2500000Y+2996000D03*
X+500000Y+3250000D03*
X+627000Y+3123000D03*
X+500000Y+2996000D03*
D56*
X+2750000Y-1900000D03*
X+2750000Y-1700000D03*
X+2750000Y-1500000D03*
X-500000Y+1750000D03*
X-500000Y+1550000D03*
X+3250000Y+2800000D03*
X+3250000Y+3000000D03*
X-1500000Y+1750000D03*
X-1500000Y+1550000D03*
X-2850000Y-750000D03*
X-3050000Y-750000D03*
X-1000000Y+1750000D03*
X-1000000Y+1550000D03*
X-2000000Y+1750000D03*
X-2000000Y+1550000D03*
M02*
