G04 PROTEUS GERBER X2 FILE*
%TF.GenerationSoftware,Labcenter,Proteus,8.12-SP0-Build30713*%
%TF.CreationDate,2021-09-16T14:44:57+00:00*%
%TF.FileFunction,AssemblyDrawing,Top*%
%TF.FilePolarity,Positive*%
%TF.Part,Single*%
%TF.SameCoordinates,{034bc27d-0c73-46ba-bb4b-be9bc49d2133}*%
%FSLAX45Y45*%
%MOMM*%
G01*
%TA.AperFunction,Profile*%
%ADD71C,0.203200*%
%TA.AperFunction,Material*%
%ADD20C,0.203200*%
%ADD21C,0.508000*%
%ADD33C,0.827120*%
%ADD34C,0.914400*%
%ADD35C,0.355600*%
%ADD36C,0.550330*%
%ADD37C,0.812800*%
%ADD38C,0.237060*%
%ADD39C,0.198120*%
%ADD22C,0.152400*%
%ADD40C,0.558800*%
%ADD41C,0.065460*%
%ADD42C,0.609600*%
%ADD43C,0.127000*%
%ADD44C,0.045460*%
%ADD45C,0.066730*%
%ADD46C,0.055610*%
%ADD47C,0.041710*%
%ADD48C,0.111220*%
%ADD49C,0.050000*%
%ADD50C,1.165860*%
%ADD51C,0.147960*%
%TD.AperFunction*%
D71*
X-3250000Y-2500000D02*
X+3750000Y-2500000D01*
X+3750000Y+3750000D01*
X-3250000Y+3750000D01*
X-3250000Y-2500000D01*
D20*
X-2550160Y-952500D02*
X+2550160Y-952500D01*
X+2550160Y+698500D01*
X-2550160Y+698500D01*
X-2550160Y-952500D01*
D21*
X-2413000Y-889000D02*
X-2413000Y-889000D01*
D33*
X-663132Y+121138D02*
X-663132Y-292425D01*
X-570081Y-375137D01*
X-197875Y-375137D01*
X-104823Y-292425D01*
X-104823Y+121138D01*
X+267383Y-44287D02*
X+453486Y+121138D01*
X+453486Y-375137D01*
D20*
X-3162300Y-2514160D02*
X+114300Y-2514160D01*
X+114300Y-1985840D01*
X-3162300Y-1985840D01*
X-3162300Y-2514160D01*
D34*
X+0Y-2250000D02*
X+0Y-2250000D01*
D35*
X-1924050Y-2356680D02*
X-1924050Y-2143320D01*
X-1724025Y-2143320D01*
X-1684020Y-2178880D01*
X-1684020Y-2214440D01*
X-1724025Y-2250000D01*
X-1924050Y-2250000D01*
X-1724025Y-2250000D02*
X-1684020Y-2285560D01*
X-1684020Y-2356680D01*
X-1524000Y-2214440D02*
X-1443990Y-2143320D01*
X-1443990Y-2356680D01*
D20*
X-1894660Y+2393340D02*
X+30660Y+2393340D01*
X+30660Y+3556660D01*
X-1894660Y+3556660D01*
X-1894660Y+2393340D01*
D36*
X-1674948Y+2809900D02*
X-1674948Y+3140100D01*
X-1365387Y+3140100D01*
X-1303474Y+3085067D01*
X-1303474Y+3030033D01*
X-1365387Y+2975000D01*
X-1674948Y+2975000D01*
X-1365387Y+2975000D02*
X-1303474Y+2919967D01*
X-1303474Y+2809900D01*
X-1179649Y+3140100D02*
X-1179649Y+2809900D01*
X-808175Y+2809900D01*
X-560526Y+3030033D02*
X-436701Y+3140100D01*
X-436701Y+2809900D01*
D20*
X+1049340Y+2299340D02*
X+2974660Y+2299340D01*
X+2974660Y+3462660D01*
X+1049340Y+3462660D01*
X+1049340Y+2299340D01*
D36*
X+1269052Y+2715900D02*
X+1269052Y+3046100D01*
X+1578613Y+3046100D01*
X+1640526Y+2991067D01*
X+1640526Y+2936033D01*
X+1578613Y+2881000D01*
X+1269052Y+2881000D01*
X+1578613Y+2881000D02*
X+1640526Y+2825967D01*
X+1640526Y+2715900D01*
X+1764351Y+3046100D02*
X+1764351Y+2715900D01*
X+2135825Y+2715900D01*
X+2321562Y+2991067D02*
X+2383474Y+3046100D01*
X+2569211Y+3046100D01*
X+2631124Y+2991067D01*
X+2631124Y+2936033D01*
X+2569211Y+2881000D01*
X+2631124Y+2825967D01*
X+2631124Y+2770933D01*
X+2569211Y+2715900D01*
X+2383474Y+2715900D01*
X+2321562Y+2770933D01*
X+2445387Y+2881000D02*
X+2569211Y+2881000D01*
D20*
X+2985840Y-662300D02*
X+3514160Y-662300D01*
X+3514160Y+2614300D01*
X+2985840Y+2614300D01*
X+2985840Y-662300D01*
D34*
X+3250000Y-548000D02*
X+3250000Y-548000D01*
D35*
X+3356680Y+735970D02*
X+3143320Y+735970D01*
X+3143320Y+935995D01*
X+3178880Y+976000D01*
X+3214440Y+976000D01*
X+3250000Y+935995D01*
X+3250000Y+735970D01*
X+3250000Y+935995D02*
X+3285560Y+976000D01*
X+3356680Y+976000D01*
X+3178880Y+1096015D02*
X+3143320Y+1136020D01*
X+3143320Y+1256035D01*
X+3178880Y+1296040D01*
X+3214440Y+1296040D01*
X+3250000Y+1256035D01*
X+3250000Y+1136020D01*
X+3285560Y+1096015D01*
X+3356680Y+1096015D01*
X+3356680Y+1296040D01*
D20*
X+592840Y+1108840D02*
X+2391160Y+1108840D01*
X+2391160Y+1637160D01*
X+592840Y+1637160D01*
X+592840Y+1108840D01*
D37*
X+730000Y+1246000D02*
X+730000Y+1246000D01*
D35*
X+940820Y+1479680D02*
X+940820Y+1266320D01*
X+1180850Y+1266320D01*
X+1500890Y+1301880D02*
X+1460885Y+1266320D01*
X+1340870Y+1266320D01*
X+1260860Y+1337440D01*
X+1260860Y+1408560D01*
X+1340870Y+1479680D01*
X+1460885Y+1479680D01*
X+1500890Y+1444120D01*
X+1580900Y+1266320D02*
X+1580900Y+1479680D01*
X+1740920Y+1479680D01*
X+1820930Y+1408560D01*
X+1820930Y+1337440D01*
X+1740920Y+1266320D01*
X+1580900Y+1266320D01*
X+1980950Y+1408560D02*
X+2060960Y+1479680D01*
X+2060960Y+1266320D01*
D20*
X-3264160Y-412300D02*
X-2735840Y-412300D01*
X-2735840Y+2864300D01*
X-3264160Y+2864300D01*
X-3264160Y-412300D01*
D34*
X-3000000Y+2750000D02*
X-3000000Y+2750000D01*
D35*
X-2893320Y+825950D02*
X-3106680Y+825950D01*
X-3106680Y+1025975D01*
X-3071120Y+1065980D01*
X-3035560Y+1065980D01*
X-3000000Y+1025975D01*
X-3000000Y+825950D01*
X-3000000Y+1025975D02*
X-2964440Y+1065980D01*
X-2893320Y+1065980D01*
X-3071120Y+1185995D02*
X-3106680Y+1226000D01*
X-3106680Y+1346015D01*
X-3071120Y+1386020D01*
X-3035560Y+1386020D01*
X-3000000Y+1346015D01*
X-2964440Y+1386020D01*
X-2928880Y+1386020D01*
X-2893320Y+1346015D01*
X-2893320Y+1226000D01*
X-2928880Y+1185995D01*
X-3000000Y+1266005D02*
X-3000000Y+1346015D01*
D20*
X+1235840Y-2272160D02*
X+1764160Y-2272160D01*
X+1764160Y-1235840D01*
X+1235840Y-1235840D01*
X+1235840Y-2272160D01*
D37*
X+1500000Y-1500000D02*
X+1500000Y-1500000D01*
D38*
X+1428881Y-2119759D02*
X+1571120Y-1959740D01*
X+1571120Y-2119759D02*
X+1428881Y-1959740D01*
X+1476294Y-1853061D02*
X+1428881Y-1799721D01*
X+1571120Y-1799721D01*
D20*
X-916560Y-1666560D02*
X-83440Y-1666560D01*
X-83440Y-1100140D01*
X-916560Y-1100140D01*
X-916560Y-1666560D01*
D37*
X-246000Y-1250000D02*
X-246000Y-1250000D01*
D39*
X-779908Y-1323914D02*
X-779908Y-1422974D01*
X-757620Y-1442786D01*
X-668466Y-1442786D01*
X-646177Y-1422974D01*
X-646177Y-1323914D01*
X-579312Y-1343726D02*
X-557023Y-1323914D01*
X-490158Y-1323914D01*
X-467869Y-1343726D01*
X-467869Y-1363538D01*
X-490158Y-1383350D01*
X-557023Y-1383350D01*
X-579312Y-1403162D01*
X-579312Y-1442786D01*
X-467869Y-1442786D01*
D22*
X+3355220Y-1845250D02*
X+3644780Y-1845250D01*
X+3644780Y-1054750D01*
X+3355220Y-1054750D01*
X+3355220Y-1845250D01*
X+3644780Y-1845250D01*
X+3644780Y-1054750D01*
X+3355220Y-1054750D01*
X+3355220Y-1845250D01*
D40*
X+3500000Y-1150000D02*
X+3500000Y-1150000D01*
D41*
X+3480362Y-1809975D02*
X+3519638Y-1809975D01*
X+3480362Y-1765790D02*
X+3500000Y-1787883D01*
X+3519638Y-1765790D01*
X+3500000Y-1809975D02*
X+3500000Y-1787883D01*
X+3519638Y-1706876D02*
X+3519638Y-1751061D01*
X+3480362Y-1751061D01*
X+3480362Y-1706876D01*
X+3500000Y-1751061D02*
X+3500000Y-1721604D01*
X+3480362Y-1647962D02*
X+3519638Y-1692147D01*
X+3480362Y-1692147D02*
X+3500000Y-1670055D01*
X+3519638Y-1633233D02*
X+3480362Y-1633233D01*
X+3480362Y-1596412D01*
X+3486908Y-1589048D01*
X+3493454Y-1589048D01*
X+3500000Y-1596412D01*
X+3500000Y-1633233D01*
X+3519638Y-1574319D02*
X+3493454Y-1574319D01*
X+3480362Y-1559591D01*
X+3480362Y-1544862D01*
X+3493454Y-1530134D01*
X+3519638Y-1530134D01*
X+3506546Y-1574319D02*
X+3506546Y-1530134D01*
X+3519638Y-1515405D02*
X+3480362Y-1515405D01*
X+3480362Y-1485948D01*
X+3493454Y-1471220D01*
X+3506546Y-1471220D01*
X+3519638Y-1485948D01*
X+3519638Y-1515405D01*
X+3500000Y-1449127D02*
X+3500000Y-1412306D01*
X+3519638Y-1397577D02*
X+3493454Y-1397577D01*
X+3480362Y-1382849D01*
X+3480362Y-1368120D01*
X+3493454Y-1353392D01*
X+3519638Y-1353392D01*
X+3506546Y-1397577D02*
X+3506546Y-1353392D01*
X+3480362Y-1294478D02*
X+3519638Y-1338663D01*
X+3519638Y-1279749D02*
X+3480362Y-1279749D01*
X+3480362Y-1250292D01*
X+3493454Y-1235564D01*
X+3506546Y-1235564D01*
X+3519638Y-1250292D01*
X+3519638Y-1279749D01*
D20*
X-2637160Y+2858840D02*
X-2235840Y+2858840D01*
X-2235840Y+3387160D01*
X-2637160Y+3387160D01*
X-2637160Y+2858840D01*
D42*
X-2500000Y+3250000D02*
X-2500000Y+3250000D01*
D43*
X-2550800Y+3051880D02*
X-2522225Y+3077280D01*
X-2493650Y+3077280D01*
X-2465075Y+3051880D01*
X-2465075Y+3026480D01*
X-2493650Y+3001080D01*
X-2522225Y+3001080D01*
X-2550800Y+3026480D01*
X-2550800Y+3051880D01*
X-2493650Y+3026480D02*
X-2465075Y+3001080D01*
X-2407925Y+3051880D02*
X-2379350Y+3077280D01*
X-2379350Y+3001080D01*
D20*
X+362840Y+2858840D02*
X+764160Y+2858840D01*
X+764160Y+3387160D01*
X+362840Y+3387160D01*
X+362840Y+2858840D01*
D42*
X+500000Y+3250000D02*
X+500000Y+3250000D01*
D43*
X+449200Y+3051880D02*
X+477775Y+3077280D01*
X+506350Y+3077280D01*
X+534925Y+3051880D01*
X+534925Y+3026480D01*
X+506350Y+3001080D01*
X+477775Y+3001080D01*
X+449200Y+3026480D01*
X+449200Y+3051880D01*
X+506350Y+3026480D02*
X+534925Y+3001080D01*
X+577787Y+3064580D02*
X+592075Y+3077280D01*
X+634937Y+3077280D01*
X+649225Y+3064580D01*
X+649225Y+3051880D01*
X+634937Y+3039180D01*
X+592075Y+3039180D01*
X+577787Y+3026480D01*
X+577787Y+3001080D01*
X+649225Y+3001080D01*
D22*
X+2894780Y-1404750D02*
X+2605220Y-1404750D01*
X+2605220Y-1995250D01*
X+2894780Y-1995250D01*
X+2894780Y-1404750D01*
X+2605220Y-1404750D01*
X+2605220Y-1995250D01*
X+2894780Y-1995250D01*
X+2894780Y-1404750D01*
D40*
X+2750000Y-1900000D02*
X+2750000Y-1900000D01*
D44*
X+2736362Y-1839165D02*
X+2763638Y-1839165D01*
X+2736362Y-1808480D02*
X+2750000Y-1823823D01*
X+2763638Y-1808480D01*
X+2750000Y-1839165D02*
X+2750000Y-1823823D01*
X+2763638Y-1767566D02*
X+2763638Y-1798251D01*
X+2736362Y-1798251D01*
X+2736362Y-1767566D01*
X+2750000Y-1798251D02*
X+2750000Y-1777794D01*
X+2736362Y-1726652D02*
X+2763638Y-1757337D01*
X+2736362Y-1757337D02*
X+2750000Y-1741995D01*
X+2763638Y-1716423D02*
X+2736362Y-1716423D01*
X+2736362Y-1690852D01*
X+2740908Y-1685738D01*
X+2745454Y-1685738D01*
X+2750000Y-1690852D01*
X+2750000Y-1716423D01*
X+2763638Y-1675509D02*
X+2745454Y-1675509D01*
X+2736362Y-1665281D01*
X+2736362Y-1655052D01*
X+2745454Y-1644824D01*
X+2763638Y-1644824D01*
X+2754546Y-1675509D02*
X+2754546Y-1644824D01*
X+2763638Y-1634595D02*
X+2736362Y-1634595D01*
X+2736362Y-1614138D01*
X+2745454Y-1603910D01*
X+2754546Y-1603910D01*
X+2763638Y-1614138D01*
X+2763638Y-1634595D01*
X+2750000Y-1588567D02*
X+2750000Y-1562996D01*
X+2745454Y-1542539D02*
X+2736362Y-1532310D01*
X+2763638Y-1532310D01*
X+2736362Y-1481168D02*
X+2763638Y-1511853D01*
X+2740908Y-1465825D02*
X+2736362Y-1460711D01*
X+2736362Y-1445368D01*
X+2740908Y-1440254D01*
X+2745454Y-1440254D01*
X+2750000Y-1445368D01*
X+2754546Y-1440254D01*
X+2759092Y-1440254D01*
X+2763638Y-1445368D01*
X+2763638Y-1460711D01*
X+2759092Y-1465825D01*
X+2750000Y-1455597D02*
X+2750000Y-1445368D01*
D22*
X-374600Y+1924320D02*
X-626060Y+1924320D01*
X-626060Y+1375680D01*
X-374600Y+1375680D01*
X-374600Y+1924320D01*
X-626060Y+1924320D01*
X-626060Y+1375680D01*
X-374600Y+1375680D01*
X-374600Y+1924320D01*
D40*
X-500000Y+1750000D02*
X-500000Y+1750000D01*
D45*
X-480309Y+1394905D02*
X-507003Y+1394905D01*
X-520350Y+1409920D01*
X-520350Y+1424936D01*
X-507003Y+1439951D01*
X-480309Y+1439951D01*
X-493656Y+1394905D02*
X-493656Y+1439951D01*
X-480309Y+1454967D02*
X-520350Y+1454967D01*
X-520350Y+1492505D01*
X-513677Y+1500013D01*
X-507003Y+1500013D01*
X-500330Y+1492505D01*
X-500330Y+1454967D01*
X-500330Y+1492505D02*
X-493656Y+1500013D01*
X-480309Y+1500013D01*
X-480309Y+1515029D02*
X-520350Y+1515029D01*
X-500330Y+1537552D01*
X-520350Y+1560075D01*
X-480309Y+1560075D01*
X-480309Y+1575091D02*
X-507003Y+1575091D01*
X-520350Y+1590106D01*
X-520350Y+1605122D01*
X-507003Y+1620137D01*
X-480309Y+1620137D01*
X-493656Y+1575091D02*
X-493656Y+1620137D01*
X-480309Y+1635153D02*
X-520350Y+1635153D01*
X-520350Y+1672691D01*
X-513677Y+1680199D01*
X-507003Y+1680199D01*
X-500330Y+1672691D01*
X-500330Y+1635153D01*
X-500330Y+1672691D02*
X-493656Y+1680199D01*
X-480309Y+1680199D01*
D22*
X+3124600Y+2625680D02*
X+3376060Y+2625680D01*
X+3376060Y+3174320D01*
X+3124600Y+3174320D01*
X+3124600Y+2625680D01*
X+3376060Y+2625680D01*
X+3376060Y+3174320D01*
X+3124600Y+3174320D01*
X+3124600Y+2625680D01*
D40*
X+3250000Y+2800000D02*
X+3250000Y+2800000D01*
D46*
X+3267014Y+2854787D02*
X+3233646Y+2854787D01*
X+3233646Y+2886068D01*
X+3239207Y+2892325D01*
X+3244769Y+2892325D01*
X+3250330Y+2886068D01*
X+3255891Y+2892325D01*
X+3261453Y+2892325D01*
X+3267014Y+2886068D01*
X+3267014Y+2854787D01*
X+3250330Y+2854787D02*
X+3250330Y+2886068D01*
X+3233646Y+2904838D02*
X+3261453Y+2904838D01*
X+3267014Y+2911094D01*
X+3267014Y+2936119D01*
X+3261453Y+2942376D01*
X+3233646Y+2942376D01*
X+3233646Y+2954889D02*
X+3233646Y+2992427D01*
X+3267014Y+2954889D01*
X+3267014Y+2992427D01*
X+3233646Y+3004940D02*
X+3233646Y+3042478D01*
X+3267014Y+3004940D01*
X+3267014Y+3042478D01*
X+3267014Y+3092529D02*
X+3267014Y+3054991D01*
X+3233646Y+3054991D01*
X+3233646Y+3092529D01*
X+3250330Y+3054991D02*
X+3250330Y+3080016D01*
X+3267014Y+3105042D02*
X+3233646Y+3105042D01*
X+3233646Y+3136323D01*
X+3239207Y+3142580D01*
X+3244769Y+3142580D01*
X+3250330Y+3136323D01*
X+3250330Y+3105042D01*
X+3250330Y+3136323D02*
X+3255891Y+3142580D01*
X+3267014Y+3142580D01*
D22*
X-1374600Y+1924320D02*
X-1626060Y+1924320D01*
X-1626060Y+1375680D01*
X-1374600Y+1375680D01*
X-1374600Y+1924320D01*
X-1626060Y+1924320D01*
X-1626060Y+1375680D01*
X-1374600Y+1375680D01*
X-1374600Y+1924320D01*
D40*
X-1500000Y+1750000D02*
X-1500000Y+1750000D01*
D47*
X-1487817Y+1394904D02*
X-1512843Y+1394904D01*
X-1512843Y+1413673D01*
X-1504501Y+1423058D01*
X-1496159Y+1423058D01*
X-1487817Y+1413673D01*
X-1487817Y+1394904D01*
X-1487817Y+1460597D02*
X-1487817Y+1432443D01*
X-1512843Y+1432443D01*
X-1512843Y+1460597D01*
X-1500330Y+1432443D02*
X-1500330Y+1451212D01*
X-1512843Y+1469982D02*
X-1512843Y+1498136D01*
X-1512843Y+1484059D02*
X-1487817Y+1484059D01*
X-1487817Y+1535675D02*
X-1487817Y+1507521D01*
X-1512843Y+1507521D01*
X-1512843Y+1535675D01*
X-1500330Y+1507521D02*
X-1500330Y+1526290D01*
X-1491988Y+1573214D02*
X-1487817Y+1568521D01*
X-1487817Y+1554444D01*
X-1496159Y+1545060D01*
X-1504501Y+1545060D01*
X-1512843Y+1554444D01*
X-1512843Y+1568521D01*
X-1508672Y+1573214D01*
X-1512843Y+1582599D02*
X-1512843Y+1610753D01*
X-1512843Y+1596676D02*
X-1487817Y+1596676D01*
X-1504501Y+1620138D02*
X-1512843Y+1629522D01*
X-1512843Y+1638907D01*
X-1504501Y+1648292D01*
X-1496159Y+1648292D01*
X-1487817Y+1638907D01*
X-1487817Y+1629522D01*
X-1496159Y+1620138D01*
X-1504501Y+1620138D01*
X-1487817Y+1657677D02*
X-1512843Y+1657677D01*
X-1512843Y+1681138D01*
X-1508672Y+1685831D01*
X-1504501Y+1685831D01*
X-1500330Y+1681138D01*
X-1500330Y+1657677D01*
X-1500330Y+1681138D02*
X-1496159Y+1685831D01*
X-1487817Y+1685831D01*
D22*
X-2675680Y-875400D02*
X-2675680Y-623940D01*
X-3224320Y-623940D01*
X-3224320Y-875400D01*
X-2675680Y-875400D01*
X-2675680Y-623940D01*
X-3224320Y-623940D01*
X-3224320Y-875400D01*
X-2675680Y-875400D01*
D40*
X-2850000Y-750000D02*
X-2850000Y-750000D01*
D48*
X-3205094Y-716303D02*
X-3205094Y-783038D01*
X-3130017Y-783038D01*
X-3029914Y-783038D02*
X-3104991Y-783038D01*
X-3104991Y-716303D01*
X-3029914Y-716303D01*
X-3104991Y-749670D02*
X-3054940Y-749670D01*
X-3004888Y-783038D02*
X-3004888Y-716303D01*
X-2954837Y-716303D01*
X-2929811Y-738548D01*
X-2929811Y-760793D01*
X-2954837Y-783038D01*
X-3004888Y-783038D01*
D22*
X-874600Y+1924320D02*
X-1126060Y+1924320D01*
X-1126060Y+1375680D01*
X-874600Y+1375680D01*
X-874600Y+1924320D01*
X-1126060Y+1924320D01*
X-1126060Y+1375680D01*
X-874600Y+1375680D01*
X-874600Y+1924320D01*
D40*
X-1000000Y+1750000D02*
X-1000000Y+1750000D01*
D45*
X-1020350Y+1394905D02*
X-980309Y+1394905D01*
X-980309Y+1439951D01*
X-1020350Y+1462474D02*
X-1020350Y+1492505D01*
X-1020350Y+1477490D02*
X-980309Y+1477490D01*
X-980309Y+1462474D02*
X-980309Y+1492505D01*
X-993656Y+1545060D02*
X-993656Y+1560075D01*
X-980309Y+1560075D01*
X-980309Y+1530044D01*
X-993656Y+1515029D01*
X-1007003Y+1515029D01*
X-1020350Y+1530044D01*
X-1020350Y+1552567D01*
X-1013677Y+1560075D01*
X-980309Y+1575091D02*
X-1007003Y+1575091D01*
X-1020350Y+1590106D01*
X-1020350Y+1605122D01*
X-1007003Y+1620137D01*
X-980309Y+1620137D01*
X-993656Y+1575091D02*
X-993656Y+1620137D01*
X-980309Y+1635153D02*
X-1020350Y+1635153D01*
X-1020350Y+1672691D01*
X-1013677Y+1680199D01*
X-1007003Y+1680199D01*
X-1000330Y+1672691D01*
X-1000330Y+1635153D01*
X-1000330Y+1672691D02*
X-993656Y+1680199D01*
X-980309Y+1680199D01*
D22*
X-1874600Y+1924320D02*
X-2126060Y+1924320D01*
X-2126060Y+1375680D01*
X-1874600Y+1375680D01*
X-1874600Y+1924320D01*
X-2126060Y+1924320D01*
X-2126060Y+1375680D01*
X-1874600Y+1375680D01*
X-1874600Y+1924320D01*
D40*
X-2000000Y+1750000D02*
X-2000000Y+1750000D01*
D45*
X-1980309Y+1394905D02*
X-2020350Y+1394905D01*
X-2000330Y+1417428D01*
X-2020350Y+1439951D01*
X-1980309Y+1439951D01*
X-2007003Y+1454967D02*
X-2020350Y+1469982D01*
X-2020350Y+1484998D01*
X-2007003Y+1500013D01*
X-1993656Y+1500013D01*
X-1980309Y+1484998D01*
X-1980309Y+1469982D01*
X-1993656Y+1454967D01*
X-2007003Y+1454967D01*
X-2020350Y+1515029D02*
X-2020350Y+1560075D01*
X-2020350Y+1537552D02*
X-1980309Y+1537552D01*
X-2007003Y+1575091D02*
X-2020350Y+1590106D01*
X-2020350Y+1605122D01*
X-2007003Y+1620137D01*
X-1993656Y+1620137D01*
X-1980309Y+1605122D01*
X-1980309Y+1590106D01*
X-1993656Y+1575091D01*
X-2007003Y+1575091D01*
X-1980309Y+1635153D02*
X-2020350Y+1635153D01*
X-2020350Y+1672691D01*
X-2013677Y+1680199D01*
X-2007003Y+1680199D01*
X-2000330Y+1672691D01*
X-2000330Y+1635153D01*
X-2000330Y+1672691D02*
X-1993656Y+1680199D01*
X-1980309Y+1680199D01*
D49*
X+238000Y-1705000D02*
X+848000Y-1705000D01*
X+848000Y-1295000D01*
X+238000Y-1295000D01*
X+238000Y-1705000D01*
X+543000Y-1450000D02*
X+543000Y-1550000D01*
X+593000Y-1500000D02*
X+493000Y-1500000D01*
D50*
X+328000Y-1500000D02*
X+328000Y-1500000D01*
D51*
X+585104Y-1529593D02*
X+568459Y-1544389D01*
X+518522Y-1544389D01*
X+485231Y-1514797D01*
X+485231Y-1485204D01*
X+518522Y-1455612D01*
X+568459Y-1455612D01*
X+585104Y-1470408D01*
X+651687Y-1485204D02*
X+684978Y-1455612D01*
X+684978Y-1544389D01*
D49*
X+230000Y-2205000D02*
X+840000Y-2205000D01*
X+840000Y-1795000D01*
X+230000Y-1795000D01*
X+230000Y-2205000D01*
X+535000Y-1950000D02*
X+535000Y-2050000D01*
X+585000Y-2000000D02*
X+485000Y-2000000D01*
D50*
X+320000Y-2000000D02*
X+320000Y-2000000D01*
D51*
X+577104Y-2029593D02*
X+560459Y-2044389D01*
X+510522Y-2044389D01*
X+477231Y-2014797D01*
X+477231Y-1985204D01*
X+510522Y-1955612D01*
X+560459Y-1955612D01*
X+577104Y-1970408D01*
X+627041Y-1970408D02*
X+643687Y-1955612D01*
X+693624Y-1955612D01*
X+710269Y-1970408D01*
X+710269Y-1985204D01*
X+693624Y-2000000D01*
X+643687Y-2000000D01*
X+627041Y-2014797D01*
X+627041Y-2044389D01*
X+710269Y-2044389D01*
M02*
